<?xml version="1.0" standalone="no"?>
<!DOCTYPE svg PUBLIC "-//W3C//DTD SVG 20010904//EN"
 "http://www.w3.org/TR/2001/REC-SVG-20010904/DTD/svg10.dtd">
<svg version="1.0" xmlns="http://www.w3.org/2000/svg"
 width="512.000000pt" height="512.000000pt" viewBox="0 0 512.000000 512.000000"
 preserveAspectRatio="xMidYMid meet">
<metadata>
Created by potrace 1.14, written by Peter Selinger 2001-2017
</metadata>
<g transform="translate(0.000000,512.000000) scale(0.100000,-0.100000)"
fill="#000000" stroke="none">
<path d="M702 2738 l3 -1973 178 -3 177 -2 0 -176 c0 -202 -10 -192 106 -114
41 29 82 49 90 46 8 -3 47 -28 89 -56 41 -27 77 -50 80 -50 3 0 5 79 5 175 l0
175 1493 2 1492 3 3 1973 2 1972 -1860 0 -1860 0 2 -1972z m1107 634 c105 -53
134 -193 58 -279 -41 -46 -82 -63 -157 -63 l-60 0 0 -80 0 -80 -70 0 -70 0 0
260 0 260 133 0 c106 0 139 -3 166 -18z m526 -1 c100 -45 155 -131 155 -240 0
-208 -214 -334 -393 -233 -56 32 -110 100 -127 160 -34 124 30 257 150 311 59
27 159 28 215 2z m554 1 c104 -53 134 -193 58 -278 -30 -35 -30 -37 -15 -63 8
-15 32 -58 52 -94 l38 -67 -79 0 -78 0 -44 81 c-42 75 -47 80 -75 77 l-31 -3
-3 -77 -3 -78 -64 0 -65 0 0 260 0 260 138 0 c111 0 144 -3 171 -18z m601 -42
l0 -60 -75 0 -75 0 0 -200 0 -200 -70 0 -70 0 0 200 0 200 -75 0 -75 0 0 60 0
60 220 0 220 0 0 -60z m-1187 -628 c113 -61 165 -197 122 -323 -61 -177 -300
-232 -433 -99 -49 49 -74 106 -80 180 -4 59 -1 71 29 129 73 137 227 186 362
113z m1272 9 c82 -36 155 -150 155 -241 0 -55 -31 -132 -71 -175 -57 -62 -118
-89 -199 -89 -149 0 -260 112 -260 264 0 197 193 321 375 241z m-1705 -41 l0
-60 -110 0 -110 0 0 -45 0 -45 90 0 90 0 0 -55 0 -55 -90 0 -90 0 0 -100 0
-100 -70 0 -70 0 0 260 0 260 180 0 180 0 0 -60z m790 -140 l0 -200 120 0 120
0 0 -60 0 -60 -190 0 -190 0 0 260 0 260 70 0 70 0 0 -200z m450 -60 l0 -260
-70 0 -70 0 0 260 0 260 70 0 70 0 0 -260z"/>
<path d="M1650 3210 l0 -60 48 0 c57 0 72 12 72 60 0 48 -15 60 -72 60 l-48 0
0 -60z"/>
<path d="M2145 3237 c-59 -59 -57 -163 3 -219 82 -78 202 -16 202 105 0 95
-46 147 -131 147 -33 0 -47 -6 -74 -33z"/>
<path d="M2710 3210 l0 -61 62 3 c58 3 63 5 72 31 6 17 6 37 0 55 -9 25 -14
27 -72 30 l-62 3 0 -61z"/>
<path d="M2095 2577 c-20 -20 -36 -48 -40 -70 -11 -57 3 -107 40 -144 28 -28
40 -33 83 -33 77 0 122 52 122 142 0 86 -49 138 -131 138 -33 0 -47 -6 -74
-33z"/>
<path d="M3388 2587 c-37 -31 -48 -58 -48 -117 0 -92 43 -140 126 -140 39 0
51 5 79 33 59 59 56 169 -6 221 -41 35 -112 36 -151 3z"/>
</g>
</svg>
